Coordinates
version=1
nRows=26
nColumns=24
inDegrees=yes

Units are S.I. units (second, meters, Newtons, ...)
Angles are in degrees.

endheader
time	pelvis_tilt	pelvis_list	pelvis_rotation	pelvis_tx	pelvis_ty	pelvis_tz	hip_flexion_r	hip_adduction_r	hip_rotation_r	knee_angle_r	ankle_angle_r	subtalar_angle_r	mtp_angle_r	hip_flexion_l	hip_adduction_l	hip_rotation_l	knee_angle_l	ankle_angle_l	subtalar_angle_l	mtp_angle_l	lumbar_extension	lumbar_bending	lumbar_rotation
      0.98416667	     -2.40207645	      1.52688445	      0.01387345	     -0.04580596	      1.04277955	      0.26434300	    -13.22400767	      0.73319611	     -4.60845447	    -13.42236369	     18.94324981	      3.93492619	      4.66197287	     26.59315076	      2.35936028	      0.27337926	     -7.99071520	      5.61501526	      7.09238259	      2.40746758	    -12.99659852	     -0.33806815	      1.75421354
      0.98833333	     -2.35006061	      1.58428192	     -0.07118081	     -0.03971391	      1.04215305	      0.26412146	    -13.30992221	      0.58300035	     -4.65228498	    -14.09795053	     18.85724474	      4.10673913	      4.69866841	     26.68737035	      2.47396003	      0.37393332	     -8.86349911	      5.29447483	      6.91549184	      2.40753461	    -12.98979526	     -0.48343204	      1.72527868
      0.99250000	     -2.33532642	      1.65887066	     -0.13074264	     -0.03357962	      1.04149990	      0.26382869	    -13.33862914	      0.40821261	     -4.75754524	    -14.81462725	     18.77969575	      4.44532844	      4.80185157	     26.81398101	      2.62334938	      0.58431451	     -9.74142838	      4.92045555	      6.60231945	      2.41301905	    -12.96224715	     -0.65773053	      1.66995836
      0.99666667	     -2.29042864	      1.73038081	     -0.19057623	     -0.02744286	      1.04095267	      0.26352554	    -13.38209907	      0.23453041	     -4.85118967	    -15.56166339	     18.62895438	      4.70196117	      4.95669535	     26.91088770	      2.76805496	      0.78539847	    -10.64261521	      4.55081906	      6.26276455	      2.41884779	    -12.95514552	     -0.82051765	      1.61144586
      1.00083333	     -2.24156974	      1.80279975	     -0.24311991	     -0.02129098	      1.04045645	      0.26319130	    -13.41110157	      0.05628147	     -4.95293867	    -16.34451865	     18.43400219	      4.95104981	      5.16188430	     27.00926460	      2.91510861	      0.98035008	    -11.57188893	      4.19913982	      5.93118753	      2.42154062	    -12.95537792	     -0.98415196	      1.54732437
      1.00500000	     -2.11609078	      1.90251749	     -0.29565431	     -0.01514598	      1.04015746	      0.26283502	    -13.50720173	     -0.15883380	     -5.07326536	    -17.14983666	     18.19080889	      5.21515141	      6.35452858	     26.99765828	      3.09924056	      1.24393700	    -12.45720641	      3.80685623	      5.40657428	      2.42546474	    -13.06391635	     -1.17972071	      1.44512166
      1.00916667	     -2.14483641	      1.95041272	     -0.33986663	     -0.00892874	      1.03962648	      0.26246529	    -13.40607284	     -0.31603838	     -5.15001145	    -18.02047893	     17.87280160	      5.37678050	      6.52816568	     27.20518074	      3.21066729	      1.35322620	    -13.46980664	      3.54933798	      5.26168955	      2.41696317	    -12.94482174	     -1.31642420	      1.41906742
      1.01333333	     -2.09833751	      2.03073790	     -0.38477476	     -0.00272305	      1.03928144	      0.26205643	    -13.35606285	     -0.52566183	     -5.29555496	    -18.94706598	     17.55263878	      5.68755923	      6.79775970	     27.30100002	      3.36460385	      1.52021713	    -14.42898035	      3.27580123	      4.94631317	      2.39529085	    -12.93979755	     -1.48769262	      1.34980262
      1.01750000	     -2.01584498	      2.09875328	     -0.41544234	      0.00344599	      1.03905497	      0.26158995	    -13.32858836	     -0.72040672	     -5.41912055	    -19.88479455	     17.09400215	      5.79707005	     11.13497384	     27.34239958	      3.52320245	      1.77335522	    -15.36211985	      3.03073916	      4.50631910	      1.99799976	    -12.98856743	     -1.62375829	      1.26201378
      1.02166667	     -1.96284146	      2.18921649	     -0.47353562	      0.00969945	      1.03883972	      0.26118688	    -13.23470470	     -0.95758782	     -5.56114933	    -20.89649221	     16.65945956	      6.09641562	     11.19945779	     27.41591683	      3.66860108	      1.83140673	    -16.30883448	      2.82592446	      4.34829635	      1.98236151	    -12.98113447	     -1.82720626	      1.20839162
      1.02583333	     -1.89702132	      2.27442135	     -0.51232868	      0.01590924	      1.03868043	      0.26070065	    -13.11650251	     -1.19836323	     -5.74123008	    -21.98293919	     16.24320019	      6.40375926	     11.35783440	     27.45832784	      3.82989240	      1.97898501	    -17.22342461	      2.65593209	      4.06634220	      1.94601629	    -12.99888984	     -1.98413188	      1.13791566
      1.03000000	     -1.83494825	      2.35937717	     -0.54853370	      0.02213363	      1.03858171	      0.26019930	    -12.97074652	     -1.44543977	     -5.91839973	    -23.10332645	     15.73820701	      6.70563286	     11.59580700	     27.48369693	      3.99142626	      2.11945274	    -18.10151355	      2.52343375	      3.79643468	      1.89113643	    -13.00988802	     -2.14954818	      1.06315656
      1.03416667	     -1.75265171	      2.44023355	     -0.58938947	      0.02834787	      1.03858544	      0.25970270	    -12.82826062	     -1.69112543	     -6.05833853	    -24.23016114	     15.07228145	      6.88443713	     15.23158026	     27.46830236	      4.14656105	      2.24647063	    -18.95054720	      2.44538537	      3.53349234	      1.05135686	    -13.04812015	     -2.31544691	      0.97963395
      1.03833333	     -1.65744844	      2.52783549	     -0.62604722	      0.03454610	      1.03863853	      0.25918813	    -12.65906083	     -1.95898320	     -6.24585881	    -25.44183390	     14.47171209	      7.17869762	     15.29187045	     27.42288227	      4.30506333	      2.33366400	    -19.76580574	      2.42145510	      3.36991445	      1.03299275	    -13.10185111	     -2.48764849	      0.92420416
      1.04250000	     -1.59701647	      2.61507348	     -0.66468000	      0.04074624	      1.03870576	      0.25866072	    -12.41979929	     -2.23528099	     -6.42238271	    -26.70305291	     13.82418171	      7.47197352	     15.41803129	     27.38610791	      4.46533337	      2.43300535	    -20.52875753	      2.41242425	      3.16541858	      0.99649566	    -13.11191565	     -2.65566256	      0.85556595
      1.04666667	     -1.50892955	      2.70838478	     -0.69948195	      0.04690605	      1.03885812	      0.25812134	    -12.18024161	     -2.52747765	     -6.61013430	    -28.00792032	     13.14163441	      7.77535191	     15.63672778	     27.29659801	      4.63405417	      2.52287415	    -21.24541522	      2.44168172	      2.97021691	      0.93445209	    -13.16217627	     -2.83379795	      0.77660592
      1.05083333	     -1.43318115	      2.79889975	     -0.73511774	      0.05304689	      1.03904329	      0.25757791	    -11.89488784	     -2.82458718	     -6.79311477	    -29.35892069	     12.40137462	      8.04569939	     15.93341297	     27.19410304	      4.79824940	      2.60003166	    -21.91113380	      2.51061333	      2.79906362	      0.84986051	    -13.18940711	     -2.99752241	      0.70367559
      1.05500000	     -1.31603694	      2.86831044	     -0.78382617	      0.05912926	      1.03937226	      0.25709805	    -11.63733738	     -3.08774071	     -6.88292053	    -30.70374621	     11.55284347	      8.14213095	     15.99742625	     27.03165951	      4.92750012	      2.62697762	    -22.55144903	      2.66214693	      2.68126280	      0.83226352	    -13.28714553	     -3.15390476	      0.65208689
      1.05916667	     -1.29147654	      2.97785484	     -0.81712359	      0.06522375	      1.03955911	      0.25652734	    -11.22287314	     -3.43240174	     -7.09371541	    -32.17229426	     10.80575745	      8.51551062	     16.36222619	     26.92619719	      5.11645152	      2.71644361	    -23.09999849	      2.76621279	      2.50151965	      0.72261847	    -13.25420959	     -3.33739142	      0.56686465
      1.06333333	     -1.16475537	      3.08627924	     -0.86874385	      0.07124319	      1.04002323	      0.25604253	    -10.91262828	     -3.75855039	     -7.20147284	    -33.59163196	      9.82707816	      8.56177087	     20.29219216	     26.67074666	      5.29978166	      2.81000703	    -23.57363308	      2.95259222	      2.28636785	     -0.56430845	    -13.36477056	     -3.54079478	      0.45530880
      1.06750000	     -1.09333033	      3.16505480	     -0.91886202	      0.07722863	      1.04041123	      0.25555080	    -10.50518836	     -4.06106303	     -7.30790868	    -35.07118119	      8.91811239	      8.74398565	     20.29796444	     26.47751927	      5.43798572	      2.82579863	    -24.05229006	      3.19379804	      2.24844409	     -0.57034016	    -13.40292836	     -3.69165313	      0.41828261
      1.07166667	     -1.01914135	      3.25779649	     -0.97566575	      0.08315543	      1.04083878	      0.25508558	    -10.06710569	     -4.38256185	     -7.40248692	    -36.59131715	      8.01669743	      8.87858212	     20.30803946	     26.25573871	      5.59037128	      2.84321124	    -24.47656270	      3.43787246	      2.15427533	     -0.58288406	    -13.44987290	     -3.86365827	      0.36178475
      1.07583333	     -0.95938201	      3.35153390	     -1.03641437	      0.08904245	      1.04129092	      0.25463544	     -9.58598722	     -4.70731998	     -7.47937884	    -38.13480495	      7.09626377	      8.98020769	     20.31671536	     26.02466527	      5.74344839	      2.86661830	    -24.85060340	      3.69470114	      2.03918822	     -0.60104941	    -13.47960345	     -4.03678453	      0.30004438
      1.08000000	     -0.89020548	      3.45146347	     -1.10558589	      0.09486647	      1.04180350	      0.25422267	     -9.08733399	     -5.03918166	     -7.53756976	    -39.69705103	      6.17544012	      9.03897414	     20.31806836	     25.76055369	      5.89937227	      2.88637887	    -25.17356339	      3.96168067	      1.91791315	     -0.62474128	    -13.52793225	     -4.21452396	      0.23738606
      1.08416667	     -0.84576839	      3.54482125	     -1.18122149	      0.10064449	      1.04231114	      0.25382437	     -8.53516429	     -5.36279877	     -7.57256774	    -41.27417602	      5.24319233	      9.04750898	     20.30589984	     25.50458581	      6.04626492	      2.90434839	    -25.45826728	      4.24271459	      1.79155302	     -0.65607770	    -13.54385925	     -4.39233524	      0.17648591
      1.08833333	     -0.78496715	      3.64252443	     -1.26697781	      0.10636256	      1.04288587	      0.25347569	     -7.97806554	     -5.68816145	     -7.58567770	    -42.85325939	      4.31559168	      9.00907261	     20.27599698	     25.21229021	      6.19159609	      2.91004553	    -25.70216451	      4.54580979	      1.67196372	     -0.68589160	    -13.58660463	     -4.56989350	      0.11755320
